<svg width="24" height="24" viewBox="0 0 24 24" fill="none" xmlns="http://www.w3.org/2000/svg">
<g clip-path="url(#clip0_138_566)">
<path d="M4.84274 19.3696H18.4013V21.3065H4.84274V19.3696ZM11.622 17.4326C9.56718 17.4326 7.59651 16.6164 6.14353 15.1634C4.69055 13.7104 3.87427 11.7397 3.87427 9.68488C3.87427 7.63005 4.69055 5.65938 6.14353 4.2064C7.59651 2.75341 9.56718 1.93713 11.622 1.93713C13.6768 1.93713 15.6475 2.75341 17.1005 4.2064C18.5535 5.65938 19.3698 7.63005 19.3698 9.68488C19.3698 11.7397 18.5535 13.7104 17.1005 15.1634C15.6475 16.6164 13.6768 17.4326 11.622 17.4326Z" fill="black" fill-opacity="0.35"/>
</g>
<defs>
<clipPath id="clip0_138_566">
<rect width="23.2432" height="23.2432" fill="white"/>
</clipPath>
</defs>
</svg>
