<svg width="24" height="24" viewBox="0 0 24 24" fill="none" xmlns="http://www.w3.org/2000/svg">
<g clip-path="url(#clip0_138_572)">
<path d="M12.2163 23.8648C5.79773 23.8648 0.594727 18.6618 0.594727 12.2432C0.594727 5.82458 5.79773 0.621582 12.2163 0.621582C18.635 0.621582 23.838 5.82458 23.838 12.2432C23.838 18.6618 18.635 23.8648 12.2163 23.8648ZM12.2163 21.5405C14.6821 21.5405 17.0469 20.561 18.7905 18.8174C20.5341 17.0738 21.5136 14.709 21.5136 12.2432C21.5136 9.77741 20.5341 7.4126 18.7905 5.66902C17.0469 3.92544 14.6821 2.94591 12.2163 2.94591C9.75055 2.94591 7.38575 3.92544 5.64217 5.66902C3.89859 7.4126 2.91905 9.77741 2.91905 12.2432C2.91905 14.709 3.89859 17.0738 5.64217 18.8174C7.38575 20.561 9.75055 21.5405 12.2163 21.5405ZM11.0542 15.7297H13.3785V18.054H11.0542V15.7297ZM13.3785 13.8179V14.5675H11.0542V12.8243C11.0542 12.5161 11.1766 12.2205 11.3946 12.0025C11.6125 11.7846 11.9081 11.6621 12.2163 11.6621C12.5465 11.6621 12.8698 11.5683 13.1488 11.3917C13.4277 11.2151 13.6508 10.9629 13.792 10.6645C13.9332 10.3661 13.9868 10.0337 13.9464 9.70602C13.9061 9.37835 13.7736 9.06886 13.5643 8.81356C13.3549 8.55826 13.0774 8.36766 12.764 8.26393C12.4506 8.16019 12.1141 8.14759 11.7938 8.22759C11.4735 8.30759 11.1825 8.4769 10.9547 8.71583C10.7268 8.95475 10.5715 9.25346 10.5068 9.5772L8.22665 9.12047C8.368 8.41398 8.69443 7.75769 9.17255 7.2187C9.65068 6.6797 10.2634 6.27734 10.948 6.05274C11.6325 5.82814 12.3645 5.78935 13.069 5.94035C13.7735 6.09135 14.4253 6.42671 14.9577 6.91216C15.4901 7.39761 15.884 8.01573 16.0993 8.70333C16.3145 9.39093 16.3433 10.1234 16.1826 10.8257C16.022 11.5281 15.6778 12.1752 15.1851 12.7009C14.6924 13.2267 14.069 13.6121 13.3785 13.8179Z" fill="black" fill-opacity="0.35"/>
</g>
<defs>
<clipPath id="clip0_138_572">
<rect width="23.2432" height="23.2432" fill="white" transform="translate(0.594727 0.621582)"/>
</clipPath>
</defs>
</svg>
