<svg width="23" height="19" viewBox="0 0 23 19" fill="none" xmlns="http://www.w3.org/2000/svg">
<path d="M11.0405 0L22.0811 4.74927V14.2478L11.0405 18.9971L0 14.2478V4.74927L11.0405 0ZM11.0405 1.99555L2.32432 5.74488V13.2522L11.0405 17.0015L19.7568 13.2522V5.74488L11.0405 1.99555ZM11.0405 12.9525C9.80764 12.9525 8.62524 12.5886 7.75345 11.9409C6.88166 11.2931 6.39189 10.4146 6.39189 9.49853C6.39189 8.58247 6.88166 7.70393 7.75345 7.05618C8.62524 6.40842 9.80764 6.04452 11.0405 6.04452C12.2734 6.04452 13.4558 6.40842 14.3276 7.05618C15.1994 7.70393 15.6892 8.58247 15.6892 9.49853C15.6892 10.4146 15.1994 11.2931 14.3276 11.9409C13.4558 12.5886 12.2734 12.9525 11.0405 12.9525ZM11.0405 11.2255C11.657 11.2255 12.2482 11.0436 12.6841 10.7197C13.12 10.3958 13.3649 9.95656 13.3649 9.49853C13.3649 9.0405 13.12 8.60123 12.6841 8.27735C12.2482 7.95348 11.657 7.77152 11.0405 7.77152C10.4241 7.77152 9.83289 7.95348 9.397 8.27735C8.9611 8.60123 8.71622 9.0405 8.71622 9.49853C8.71622 9.95656 8.9611 10.3958 9.397 10.7197C9.83289 11.0436 10.4241 11.2255 11.0405 11.2255Z" fill="black" fill-opacity="0.35"/>
</svg>
