<svg width="12" height="22" viewBox="0 0 12 22" fill="none" xmlns="http://www.w3.org/2000/svg">
<g clip-path="url(#clip0_99_265)">
<path d="M10.5821 12.4583H2.0068C1.05548 12.4583 0.573116 13.8625 1.24976 14.6806L5.53743 19.8904C5.95615 20.3992 6.63615 20.3992 7.05486 19.8904L11.3425 14.6806C12.0125 13.8625 11.5335 12.4583 10.5821 12.4583ZM6.29447 18.9706L2.0068 13.7607H10.5821L6.29447 18.9706ZM2.0068 9.85338H10.5821C11.5335 9.85338 12.0158 8.44917 11.3392 7.63107L7.05151 2.42125C6.6328 1.91248 5.9528 1.91248 5.53408 2.42125L1.24641 7.63107C0.576466 8.44917 1.05548 9.85338 2.0068 9.85338ZM6.29447 3.34111L10.5821 8.55092H2.0068L6.29447 3.34111Z" fill="#FEAF00"/>
</g>
<defs>
<clipPath id="clip0_99_265">
<rect width="10.7192" height="20.8393" fill="white" transform="translate(0.935059 0.736206)"/>
</clipPath>
</defs>
</svg>
