<svg width="24" height="24" viewBox="0 0 24 24" fill="none" xmlns="http://www.w3.org/2000/svg">
<g clip-path="url(#clip0_138_476)">
<path d="M4.84249 19.3695H18.401V21.3064H4.84249V19.3695ZM11.6218 17.4326C9.56694 17.4326 7.59627 16.6163 6.14329 15.1633C4.6903 13.7103 3.87402 11.7397 3.87402 9.68482C3.87402 7.62999 4.6903 5.65932 6.14329 4.20634C7.59627 2.75335 9.56694 1.93707 11.6218 1.93707C13.6766 1.93707 15.6473 2.75335 17.1003 4.20634C18.5532 5.65932 19.3695 7.62999 19.3695 9.68482C19.3695 11.7397 18.5532 13.7103 17.1003 15.1633C15.6473 16.6163 13.6766 17.4326 11.6218 17.4326Z" fill="black" fill-opacity="0.35"/>
</g>
<defs>
<clipPath id="clip0_138_476">
<rect width="23.2432" height="23.2432" fill="white"/>
</clipPath>
</defs>
</svg>
