<svg width="24" height="24" viewBox="0 0 24 24" fill="none" xmlns="http://www.w3.org/2000/svg">
<g clip-path="url(#clip0_138_446)">
<path d="M4.84274 19.3695H18.4013V21.3064H4.84274V19.3695ZM11.622 17.4326C9.56718 17.4326 7.59651 16.6163 6.14353 15.1633C4.69055 13.7103 3.87427 11.7397 3.87427 9.68482C3.87427 7.62999 4.69055 5.65932 6.14353 4.20634C7.59651 2.75335 9.56718 1.93707 11.622 1.93707C13.6768 1.93707 15.6475 2.75335 17.1005 4.20634C18.5535 5.65932 19.3698 7.62999 19.3698 9.68482C19.3698 11.7397 18.5535 13.7103 17.1005 15.1633C15.6475 16.6163 13.6768 17.4326 11.622 17.4326Z" fill="black" fill-opacity="0.35"/>
</g>
<defs>
<clipPath id="clip0_138_446">
<rect width="23.2432" height="23.2432" fill="white"/>
</clipPath>
</defs>
</svg>
