<svg width="15" height="24" viewBox="0 0 15 24" fill="none" xmlns="http://www.w3.org/2000/svg">
<g clip-path="url(#clip0_87_315)">
<path d="M12.9185 13.314H1.88001C0.655429 13.314 0.0345165 14.8765 0.905519 15.7869L6.42474 21.5841C6.96373 22.1503 7.83904 22.1503 8.37803 21.5841L13.8973 15.7869C14.7596 14.8765 14.143 13.314 12.9185 13.314ZM7.39923 20.5606L1.88001 14.7633H12.9185L7.39923 20.5606ZM1.88001 10.4154H12.9185C14.143 10.4154 14.7639 8.85284 13.8929 7.94249L8.37372 2.14524C7.83473 1.57911 6.95942 1.57911 6.42043 2.14524L0.901207 7.94249C0.0388285 8.85284 0.655429 10.4154 1.88001 10.4154ZM7.39923 3.16882L12.9185 8.96607H1.88001L7.39923 3.16882Z" fill="#FEAF00"/>
</g>
<defs>
<clipPath id="clip0_87_315">
<rect width="13.7981" height="23.189" fill="white" transform="translate(0.500244 0.270203)"/>
</clipPath>
</defs>
</svg>
