<svg width="12" height="22" viewBox="0 0 12 22" fill="none" xmlns="http://www.w3.org/2000/svg">
<g clip-path="url(#clip0_101_338)">
<path d="M10.4747 12.4583H1.89938C0.948057 12.4583 0.465694 13.8625 1.14234 14.6806L5.43001 19.8904C5.84873 20.3992 6.52872 20.3992 6.94744 19.8904L11.2351 14.6806C11.9051 13.8625 11.426 12.4583 10.4747 12.4583ZM6.18705 18.9706L1.89938 13.7607H10.4747L6.18705 18.9706ZM1.89938 9.85338H10.4747C11.426 9.85338 11.9084 8.44917 11.2318 7.63107L6.94409 2.42125C6.52537 1.91248 5.84538 1.91248 5.42666 2.42125L1.13899 7.63107C0.469044 8.44917 0.948057 9.85338 1.89938 9.85338ZM6.18705 3.34111L10.4747 8.55092H1.89938L6.18705 3.34111Z" fill="#FEAF00"/>
</g>
<defs>
<clipPath id="clip0_101_338">
<rect width="10.7192" height="20.8393" fill="white" transform="translate(0.827637 0.736206)"/>
</clipPath>
</defs>
</svg>
