<svg width="24" height="24" viewBox="0 0 24 24" fill="none" xmlns="http://www.w3.org/2000/svg">
<g clip-path="url(#clip0_138_542)">
<path d="M12.2163 23.8648C5.79773 23.8648 0.594727 18.6618 0.594727 12.2431C0.594727 5.82452 5.79773 0.621521 12.2163 0.621521C18.635 0.621521 23.838 5.82452 23.838 12.2431C23.838 18.6618 18.635 23.8648 12.2163 23.8648ZM12.2163 21.5404C14.6821 21.5404 17.0469 20.5609 18.7905 18.8173C20.5341 17.0737 21.5136 14.7089 21.5136 12.2431C21.5136 9.77735 20.5341 7.41254 18.7905 5.66896C17.0469 3.92538 14.6821 2.94585 12.2163 2.94585C9.75055 2.94585 7.38575 3.92538 5.64217 5.66896C3.89859 7.41254 2.91905 9.77735 2.91905 12.2431C2.91905 14.7089 3.89859 17.0737 5.64217 18.8173C7.38575 20.5609 9.75055 21.5404 12.2163 21.5404ZM11.0542 15.7296H13.3785V18.054H11.0542V15.7296ZM13.3785 13.8179V14.5675H11.0542V12.8242C11.0542 12.516 11.1766 12.2204 11.3946 12.0025C11.6125 11.7845 11.9081 11.6621 12.2163 11.6621C12.5465 11.662 12.8698 11.5683 13.1488 11.3917C13.4277 11.2151 13.6508 10.9629 13.792 10.6644C13.9332 10.366 13.9868 10.0336 13.9464 9.70596C13.9061 9.37829 13.7736 9.0688 13.5643 8.8135C13.3549 8.5582 13.0774 8.3676 12.764 8.26386C12.4506 8.16013 12.1141 8.14753 11.7938 8.22753C11.4735 8.30753 11.1825 8.47684 10.9547 8.71577C10.7268 8.95469 10.5715 9.2534 10.5068 9.57714L8.22665 9.12041C8.368 8.41392 8.69443 7.75763 9.17255 7.21863C9.65068 6.67964 10.2634 6.27728 10.948 6.05268C11.6325 5.82807 12.3645 5.78929 13.069 5.94029C13.7735 6.09129 14.4253 6.42665 14.9577 6.9121C15.4901 7.39755 15.884 8.01567 16.0993 8.70327C16.3145 9.39087 16.3433 10.1233 16.1826 10.8257C16.022 11.528 15.6778 12.1752 15.1851 12.7009C14.6924 13.2266 14.069 13.6121 13.3785 13.8179Z" fill="black" fill-opacity="0.35"/>
</g>
<defs>
<clipPath id="clip0_138_542">
<rect width="23.2432" height="23.2432" fill="white" transform="translate(0.594727 0.621521)"/>
</clipPath>
</defs>
</svg>
